<svg width="24" height="24" viewBox="0 0 24 24" fill="none" xmlns="http://www.w3.org/2000/svg">
<path fill-rule="evenodd" clip-rule="evenodd" d="M22 12.04C22 17.5629 17.5228 22.04 12 22.04C6.47715 22.04 2 17.5629 2 12.04C2 6.51716 6.47715 2.04001 12 2.04001C17.5228 2.04001 22 6.51716 22 12.04ZM17.0008 16.035C17.0008 15.7708 16.8962 15.5174 16.71 15.33L13.42 12L16.71 8.74001C16.8147 8.65036 16.8997 8.54005 16.9597 8.41598C17.0197 8.29192 17.0535 8.15679 17.0588 8.01907C17.0641 7.88135 17.0409 7.74401 16.9906 7.61569C16.9404 7.48736 16.8641 7.37082 16.7667 7.27336C16.6692 7.17591 16.5526 7.09965 16.4243 7.04938C16.296 6.9991 16.1587 6.97589 16.0209 6.98121C15.8832 6.98653 15.7481 7.02026 15.624 7.08029C15.5 7.14031 15.3896 7.22533 15.3 7.33001L12.01 10.63L8.71 7.33001C8.5187 7.16619 8.27262 7.08058 8.02095 7.0903C7.76927 7.10002 7.53053 7.20435 7.35244 7.38245C7.17434 7.56054 7.07001 7.79928 7.06029 8.05096C7.05057 8.30263 7.13617 8.54871 7.3 8.74001L10.6 12L7.29 15.33C7.10375 15.5174 6.99921 15.7708 6.99921 16.035C6.99921 16.2992 7.10375 16.5527 7.29 16.74C7.47736 16.9263 7.73081 17.0308 7.995 17.0308C8.25918 17.0308 8.51264 16.9263 8.7 16.74L12 13.45L15.3 16.74C15.4874 16.9263 15.7408 17.0308 16.005 17.0308C16.2692 17.0308 16.5226 16.9263 16.71 16.74C16.8962 16.5527 17.0008 16.2992 17.0008 16.035Z" fill="#003B71"/>
</svg>
