<svg width="16" height="16" viewBox="0 0 16 16" fill="none" xmlns="http://www.w3.org/2000/svg">
<path d="M8.00004 1.33337C6.6815 1.33337 5.39257 1.72437 4.29624 2.45691C3.19991 3.18945 2.34543 4.23064 1.84085 5.44882C1.33626 6.66699 1.20424 8.00744 1.46148 9.30064C1.71871 10.5938 2.35365 11.7817 3.286 12.7141C4.21835 13.6464 5.40623 14.2814 6.69944 14.5386C7.99265 14.7958 9.33309 14.6638 10.5513 14.1592C11.7694 13.6547 12.8106 12.8002 13.5432 11.7038C14.2757 10.6075 14.6667 9.31858 14.6667 8.00004C14.6667 7.12456 14.4943 6.25766 14.1592 5.44882C13.8242 4.63998 13.3331 3.90505 12.7141 3.286C12.095 2.66694 11.3601 2.17588 10.5513 1.84084C9.74243 1.50581 8.87552 1.33337 8.00004 1.33337ZM8.66671 10.6667C8.66671 10.8435 8.59647 11.0131 8.47145 11.1381C8.34642 11.2631 8.17685 11.3334 8.00004 11.3334C7.82323 11.3334 7.65366 11.2631 7.52864 11.1381C7.40361 11.0131 7.33338 10.8435 7.33338 10.6667V7.33337C7.33338 7.15656 7.40361 6.98699 7.52864 6.86197C7.65366 6.73695 7.82323 6.66671 8.00004 6.66671C8.17685 6.66671 8.34642 6.73695 8.47145 6.86197C8.59647 6.98699 8.66671 7.15656 8.66671 7.33337V10.6667ZM8.00004 6.00004C7.86819 6.00004 7.7393 5.96094 7.62966 5.88769C7.52003 5.81443 7.43458 5.71031 7.38412 5.5885C7.33367 5.46668 7.32046 5.33263 7.34619 5.20331C7.37191 5.07399 7.4354 4.9552 7.52864 4.86197C7.62187 4.76873 7.74066 4.70524 7.86998 4.67952C7.9993 4.65379 8.13335 4.667 8.25517 4.71745C8.37698 4.76791 8.4811 4.85336 8.55436 4.96299C8.62761 5.07263 8.66671 5.20152 8.66671 5.33337C8.66671 5.51019 8.59647 5.67975 8.47145 5.80478C8.34642 5.9298 8.17685 6.00004 8.00004 6.00004Z" fill="#0078B3"/>
</svg>
