<?xml version="1.0" encoding="UTF-8"?>
<svg width="60px" height="60px" viewBox="0 0 60 60" version="1.1" xmlns="http://www.w3.org/2000/svg" xmlns:xlink="http://www.w3.org/1999/xlink">
    <title>Icon/megaphone-circle/blue</title>
    <g id="Action-Area" stroke="none" stroke-width="1" fill="none" fill-rule="evenodd">
        <g id="Promotional/Announcement/1280/8-col" transform="translate(-21.000000, -46.000000)">
            <g id="Icon/megaphone-circle/blue" transform="translate(21.000000, 46.000000)">
                <circle id="Oval" fill="#def0fb" cx="30" cy="30" r="30"></circle>
                <path d="M32.312391,33.2321479 C30.1956689,32.7557656 27.5904724,32.6604891 27.5904724,32.6604891 L25.9622247,25.2289248 C25.9622247,25.2289248 28.7441674,23.4361076 29.7886069,22.2753544 C31.6336559,20.2248143 33.8162406,17.2254159 33.9411272,17.0375307 L33.9406387,17.0351488 C33.9494313,17.0240967 33.9489428,17.0258117 33.9411272,17.0375307 L37.9298458,35.5187831 C37.9298458,35.5187831 34.1160824,33.6381209 32.312391,33.2321479 L32.312391,33.2321479 Z M40.9421042,37.9006947 C40.8810449,37.3648598 40.1785374,34.0088416 39.307262,29.9302467 C40.655614,28.3198839 40.8810449,25.6882526 39.8851271,23.602365 C39.3196367,22.417888 38.4061897,21.4767471 37.4032705,21.0770623 C36.5506385,17.1234701 35.8489451,13.8644433 35.7317113,13.2240902 C35.4874741,11.8902197 34.3477007,11.3185609 33.2079272,13.2240902 C31.0583145,16.8179185 30.3584936,17.7020841 28.4860087,19.7981663 C26.1549278,22.4076934 23.519853,22.9422896 23.519853,22.9422896 L26.1250494,35.5187831 C26.1250494,35.5187831 29.9826126,34.9285454 33.1265149,36.0904418 C34.6733502,36.6621006 36.4644228,37.5195888 38.9882068,39.2345652 C39.9688191,39.9009288 41.1049289,39.3298417 40.9421042,37.9006947 L40.9421042,37.9006947 Z M22.6243167,47.1425118 C23.0313787,47.8094471 22.9499663,48 23.7640902,48 L28.3231839,46.6661295 C28.7749413,46.5470339 29.1791538,46.0394009 28.974483,45.0464296 C28.7567863,43.9903852 25.5551627,39.7109475 25.5551627,39.7109475 C24.9038636,38.8534593 24.985276,38.5676299 24.0897397,38.8534593 L18.7979345,40.3778828 L22.6243167,47.1425118 Z M18.2265823,37.9025049 L24.0897397,36.2809948 L21.4031309,23.7045014 L15.6228513,25.4194777 L18.2265823,37.9025049 Z M15.9245656,37.0739808 C13.668954,36.8526536 12,34.4220557 12,31.7077244 C12,29.9337719 12.6920053,28.1824952 13.8510735,27.3677862 L15.9245656,37.0739808 Z M47.4083646,31.6835242 C47.5522202,31.2977498 47.4016887,30.848426 47.0719686,30.6800725 L42.5789817,28.3847672 C42.2494243,28.2164137 41.8654021,28.3925798 41.7215464,28.7783542 C41.5776907,29.1641287 41.7282222,29.6134525 42.0579424,29.7819013 L46.5509293,32.0772066 C46.635761,32.1205574 46.7240934,32.1410418 46.8111233,32.1410418 C47.0621991,32.1410418 47.3014701,31.9701158 47.4083646,31.6835242 L47.4083646,31.6835242 Z M42.7549952,24.9076526 L47.5080133,23.5029916 C47.856784,23.3999025 48.0680491,22.9855452 47.9800423,22.5773808 C47.8919541,22.1692164 47.5379731,21.9220693 47.1890396,22.0249678 L42.4360215,23.4296288 C42.0872508,23.5327179 41.8759857,23.9470752 41.9639925,24.3552396 C42.0385662,24.7008074 42.3038078,24.9310906 42.5950199,24.9310906 C42.6477751,24.9310906 42.7014259,24.9234685 42.7549952,24.9076526 L42.7549952,24.9076526 Z M41.0650369,20.6223077 L43.9144705,15.9537609 C44.1235375,15.611242 44.055721,15.1351455 43.762962,14.8904756 C43.4702845,14.6458056 43.0635482,14.7250756 42.8544812,15.0676898 L40.0050476,19.7362366 C39.7959806,20.0787555 39.8637971,20.554852 40.156556,20.7995219 C40.2712661,20.8954653 40.4034798,20.9414839 40.5344723,20.9414839 C40.7376777,20.9414839 40.9378707,20.8305821 41.0650369,20.6223077 L41.0650369,20.6223077 Z" id="megaphone" fill="#006BA6"></path>
            </g>
        </g>
    </g>
</svg>