<svg id="link-icon" width="24" height="24" viewBox="0 0 24 24" xmlns="http://www.w3.org/2000/svg">
<path d="M4.06 21.03H19.98C20.53 21.03 20.98 20.59 20.98 20.03L21 14.03C21 13.48 20.55 13.03 20 13.03C19.45 13.03 19 13.48 19 14.03L18.98 19.03H5.06V5.05999L10 5.03999C10.56 5.03999 11 4.58999 11 4.03999C11 3.47999 10.55 3.03999 10 3.03999L4.06 3.06999C3.5 3.06999 3.06 3.51999 3.06 4.06999V20.03C3.06 20.58 3.51 21.03 4.06 21.03ZM19.98 3.04999C20.53 3.04999 20.98 3.49999 20.98 4.04999L21 10.04C21 10.59 20.55 11.04 20 11.04C19.45 11.04 19 10.59 19 10.04V6.47999L10.72 14.73C10.52 14.92 10.27 15.02 10.01 15.02C9.75 15.02 9.5 14.93 9.3 14.73C8.91 14.34 8.91 13.71 9.3 13.32L17.61 5.04999L14 5.03999C13.44 5.03999 13 4.58999 13 4.03999C13 3.48999 13.45 3.03999 14 3.03999L19.98 3.04999Z" fill="currentColor"/>
</svg>
