<svg id="shoppingcart-ds2-icon" width="24" height="24" viewBox="0 0 24 24" xmlns="http://www.w3.org/2000/svg">
<path fill-rule="evenodd" clip-rule="evenodd" d="M9.01 14H16.44C17.14 14 17.8 13.62 18.2 12.95L21.91 5.44C22.23 4.78 21.75 4 21.01 4H6.57L6.19 3.26C5.88 2.49 5.16 2 4.33 2H3.01C2.46 2 2.01 2.45 2.01 3C2.01 3.55 2.46 4 3.01 4H4.34L8.42 12.06C7.05 12.34 6.01 13.55 6.01 15C6.01 16.65 7.36 18 9.01 18H18.01C18.56 18 19.01 17.55 19.01 17C19.01 16.45 18.56 16 18.01 16H9.01C8.46 16 8.01 15.55 8.01 15C8.01 14.45 8.46 14 9.01 14ZM7.58 6H19.4L16.44 12H10.62L7.58 6ZM9.51 22C10.3384 22 11.01 21.3284 11.01 20.5C11.01 19.6716 10.3384 19 9.51 19C8.68157 19 8.01 19.6716 8.01 20.5C8.01 21.3284 8.68157 22 9.51 22ZM18.01 20.5C18.01 21.3284 17.3384 22 16.51 22C15.6816 22 15.01 21.3284 15.01 20.5C15.01 19.6716 15.6816 19 16.51 19C17.3384 19 18.01 19.6716 18.01 20.5Z" fill="currentColor"/>
</svg>
