<svg id="startoutline-icon" width="24" height="24" viewBox="0 0 24 24" xmlns="http://www.w3.org/2000/svg">
<path d="M5.84001 20L6.49001 14.65L2.83001 10.7C2.71977 10.583 2.64288 10.4386 2.60733 10.2818C2.57179 10.1251 2.57888 9.96162 2.62787 9.80851C2.67686 9.65541 2.76597 9.51822 2.88593 9.41121C3.00589 9.30419 3.15232 9.23126 3.31001 9.2L8.59001 8.2L11.21 3.49C11.2896 3.35076 11.4046 3.23503 11.5433 3.15454C11.6821 3.07405 11.8396 3.03166 12 3.03166C12.1604 3.03166 12.3179 3.07405 12.4567 3.15454C12.5954 3.23503 12.7104 3.35076 12.79 3.49L15.4 8.17L20.69 9.17C20.8467 9.20271 20.992 9.27616 21.1112 9.38295C21.2304 9.48974 21.3193 9.62608 21.369 9.77822C21.4187 9.93036 21.4274 10.0929 21.3942 10.2495C21.3611 10.4061 21.2872 10.5511 21.18 10.67L17.51 14.61L18.16 20C18.1792 20.1599 18.1551 20.3219 18.0903 20.4693C18.0256 20.6167 17.9224 20.744 17.7917 20.838C17.661 20.9319 17.5074 20.9891 17.3471 21.0035C17.1867 21.018 17.0254 20.9891 16.88 20.92L12 18.65L7.12001 20.91C6.97542 20.9785 6.81519 21.0072 6.65582 20.9931C6.49646 20.9791 6.34371 20.9228 6.21332 20.8301C6.08293 20.7374 5.97961 20.6116 5.91399 20.4657C5.84838 20.3198 5.82284 20.1591 5.84001 20ZM12 16.22L15.69 17.94L15.2 13.94L17.97 10.94L13.97 10.16L12 6.57L10 10.13L6.00001 10.91L8.77001 13.91L8.28001 17.91L12 16.22Z" fill="currentColor"/>
</svg>
