<svg id="trash-icon" width="24" height="24" viewBox="0 0 24 24" xmlns="http://www.w3.org/2000/svg">
<path fill-rule="evenodd" clip-rule="evenodd" d="M14.01 3H19.01C20.1 3 21.01 3.9 21.01 5V6H20.01V20C20.01 21.1 19.1 22 18.01 22H6.01001C4.92001 22 4.01001 21.1 4.01001 20V6H3.01001V5C3.01001 3.9 3.92001 3 5.01001 3H10.01C10.01 2.45 10.46 2 11.01 2H13.01C13.56 2 14.01 2.45 14.01 3ZM6.01001 6V20H18.01V6H6.01001ZM7.01001 18C7.01001 18.55 7.46001 19 8.01001 19C8.56001 19 9.01001 18.55 9.01001 18V8C9.01001 7.45 8.56001 7 8.01001 7C7.46001 7 7.01001 7.45 7.01001 8V18ZM11.01 18C11.01 18.55 11.46 19 12.01 19C12.56 19 13.01 18.55 13.01 18V8C13.01 7.45 12.56 7 12.01 7C11.46 7 11.01 7.45 11.01 8V18ZM16.01 19C15.46 19 15.01 18.55 15.01 18V8C15.01 7.45 15.46 7 16.01 7C16.56 7 17.01 7.45 17.01 8V18C17.01 18.55 16.56 19 16.01 19Z" fill="currentColor"/>
</svg>
