<svg id="alert-icon" width="24" height="24" viewBox="0 0 24 24" xmlns="http://www.w3.org/2000/svg">
  <path fill-rule="evenodd" clip-rule="evenodd" d="M3.11005 21.0001C2.76005 21.0001 2.43005 20.8101 2.25005 20.5101C2.07005 20.2101 2.07005 19.8301 2.24005 19.5201L11.13 3.52011C11.48 2.89011 12.53 2.89011 12.88 3.52011L21.77 19.5201C21.94 19.8301 21.94 20.2101 21.76 20.5101C21.57 20.8101 21.24 21.0001 20.89 21.0001H3.11005ZM12 6.06011L4.81005 19.0001H19.19L12 6.06011ZM12 18.0001C12.5523 18.0001 13 17.5524 13 17.0001C13 16.4478 12.5523 16.0001 12 16.0001C11.4478 16.0001 11 16.4478 11 17.0001C11 17.5524 11.4478 18.0001 12 18.0001ZM11 14.0001C11 14.5501 11.45 15.0001 12 15.0001C12.55 15.0001 13 14.5501 13 14.0001V11.0001C13 10.4501 12.55 10.0001 12 10.0001C11.45 10.0001 11 10.4501 11 11.0001V14.0001Z" fill="currentColor"/>
</svg>
