<svg width="24" height="24" viewBox="0 0 24 24" fill="none" xmlns="http://www.w3.org/2000/svg">
<path fill-rule="evenodd" clip-rule="evenodd" d="M6.4443 20.3147C8.08879 21.4135 10.0222 22 12 22C14.6522 22 17.1957 20.9464 19.0711 19.0711C20.9464 17.1957 22 14.6522 22 12C22 10.0222 21.4135 8.08879 20.3147 6.4443C19.2159 4.79981 17.6541 3.51809 15.8268 2.76121C13.9996 2.00433 11.9889 1.8063 10.0491 2.19215C8.10929 2.578 6.32746 3.53041 4.92894 4.92894C3.53041 6.32746 2.578 8.10929 2.19215 10.0491C1.8063 11.9889 2.00433 13.9996 2.76121 15.8268C3.51809 17.6541 4.79981 19.2159 6.4443 20.3147ZM7.55544 5.34825C8.87104 4.4692 10.4178 4 12 4C14.1217 4 16.1566 4.84286 17.6569 6.34315C19.1572 7.84344 20 9.87827 20 12C20 13.5823 19.5308 15.129 18.6518 16.4446C17.7727 17.7602 16.5233 18.7855 15.0615 19.391C13.5997 19.9965 11.9911 20.155 10.4393 19.8463C8.88743 19.5376 7.46197 18.7757 6.34315 17.6569C5.22433 16.538 4.4624 15.1126 4.15372 13.5607C3.84504 12.0089 4.00347 10.4003 4.60897 8.93854C5.21447 7.47673 6.23985 6.2273 7.55544 5.34825ZM16.9358 15.6554C16.8859 15.5338 16.8126 15.4232 16.72 15.33L13.43 12L16.72 8.74C16.9063 8.55264 17.0108 8.29919 17.0108 8.035C17.0108 7.77082 16.9063 7.51737 16.72 7.33C16.627 7.23628 16.5164 7.16188 16.3946 7.11111C16.2727 7.06034 16.142 7.03421 16.01 7.03421C15.878 7.03421 15.7473 7.06034 15.6254 7.11111C15.5036 7.16188 15.393 7.23628 15.3 7.33L12 10.62L8.72 7.33C8.62704 7.23628 8.51644 7.16188 8.39458 7.11111C8.27272 7.06034 8.14202 7.03421 8.01 7.03421C7.87799 7.03421 7.74729 7.06034 7.62543 7.11111C7.50357 7.16188 7.39297 7.23628 7.3 7.33C7.11375 7.51737 7.00921 7.77082 7.00921 8.035C7.00921 8.29919 7.11375 8.55264 7.3 8.74L10.6 12L7.3 15.33C7.20742 15.4232 7.13411 15.5338 7.08426 15.6554C7.0344 15.7769 7.00898 15.9071 7.00945 16.0385C7.00991 16.1699 7.03625 16.3 7.08696 16.4212C7.13767 16.5424 7.21176 16.6524 7.305 16.745C7.39824 16.8376 7.5088 16.9109 7.63037 16.9608C7.75194 17.0106 7.88214 17.036 8.01354 17.0356C8.14493 17.0351 8.27495 17.0088 8.39617 16.958C8.51738 16.9073 8.62742 16.8332 8.72 16.74L12 13.45L15.3 16.74C15.3926 16.8332 15.5026 16.9073 15.6238 16.958C15.7451 17.0088 15.8751 17.0351 16.0065 17.0356C16.1379 17.036 16.2681 17.0106 16.3896 16.9608C16.5112 16.9109 16.6218 16.8376 16.715 16.745C16.8082 16.6524 16.8823 16.5424 16.933 16.4212C16.9838 16.3 17.0101 16.1699 17.0106 16.0385C17.011 15.9071 16.9856 15.7769 16.9358 15.6554Z" fill="#003B71"/>
</svg>
