<svg width="20" height="20" viewBox="0 0 20 20" fill="none" xmlns="http://www.w3.org/2000/svg">
<path d="M14.9358 13.6554C14.8859 13.5338 14.8126 13.4232 14.72 13.33L11.43 10L14.72 6.74C14.9063 6.55264 15.0108 6.29919 15.0108 6.035C15.0108 5.77082 14.9063 5.51737 14.72 5.33C14.627 5.23628 14.5164 5.16188 14.3946 5.11111C14.2727 5.06034 14.142 5.03421 14.01 5.03421C13.878 5.03421 13.7473 5.06034 13.6254 5.11111C13.5036 5.16188 13.393 5.23628 13.3 5.33L10 8.62L6.72 5.33C6.62704 5.23628 6.51644 5.16188 6.39458 5.11111C6.27272 5.06034 6.14202 5.03421 6.01 5.03421C5.87799 5.03421 5.74729 5.06034 5.62543 5.11111C5.50357 5.16188 5.39297 5.23628 5.3 5.33C5.11375 5.51737 5.00921 5.77082 5.00921 6.035C5.00921 6.29919 5.11375 6.55264 5.3 6.74L8.6 10L5.3 13.33C5.20742 13.4232 5.13411 13.5338 5.08426 13.6554C5.0344 13.7769 5.00898 13.9071 5.00945 14.0385C5.00991 14.1699 5.03625 14.3 5.08696 14.4212C5.13767 14.5424 5.21176 14.6524 5.305 14.745C5.39824 14.8376 5.5088 14.9109 5.63037 14.9608C5.75194 15.0106 5.88214 15.036 6.01354 15.0356C6.14493 15.0351 6.27495 15.0088 6.39617 14.958C6.51738 14.9073 6.62742 14.8332 6.72 14.74L10 11.45L13.3 14.74C13.3926 14.8332 13.5026 14.9073 13.6238 14.958C13.7451 15.0088 13.8751 15.0351 14.0065 15.0356C14.1379 15.036 14.2681 15.0106 14.3896 14.9608C14.5112 14.9109 14.6218 14.8376 14.715 14.745C14.8082 14.6524 14.8823 14.5424 14.933 14.4212C14.9838 14.3 15.0101 14.1699 15.0106 14.0385C15.011 13.9071 14.9856 13.7769 14.9358 13.6554Z" fill="#0074AD"/>
<path fill-rule="evenodd" clip-rule="evenodd" d="M4.4443 18.3147C6.08879 19.4135 8.02219 20 10 20C12.6522 20 15.1957 18.9464 17.0711 17.0711C18.9464 15.1957 20 12.6522 20 10C20 8.02219 19.4135 6.08879 18.3147 4.4443C17.2159 2.79981 15.6541 1.51809 13.8268 0.761209C11.9996 0.00433284 9.98891 -0.193701 8.0491 0.192152C6.10929 0.578004 4.32746 1.53041 2.92894 2.92894C1.53041 4.32746 0.578004 6.10929 0.192152 8.0491C-0.193701 9.98891 0.00433284 11.9996 0.761209 13.8268C1.51809 15.6541 2.79981 17.2159 4.4443 18.3147ZM5.55544 3.34825C6.87104 2.4692 8.41775 2 10 2C12.1217 2 14.1566 2.84286 15.6569 4.34315C17.1572 5.84344 18 7.87827 18 10C18 11.5823 17.5308 13.129 16.6518 14.4446C15.7727 15.7602 14.5233 16.7855 13.0615 17.391C11.5997 17.9965 9.99113 18.155 8.43928 17.8463C6.88743 17.5376 5.46197 16.7757 4.34315 15.6569C3.22433 14.538 2.4624 13.1126 2.15372 11.5607C1.84504 10.0089 2.00347 8.40035 2.60897 6.93854C3.21447 5.47673 4.23985 4.2273 5.55544 3.34825Z" fill="#0074AD"/>
</svg>
