<svg width="16" height="16" viewBox="0 0 16 16" fill="none" xmlns="http://www.w3.org/2000/svg">
<path fill-rule="evenodd" clip-rule="evenodd" d="M8.00004 14.6667C6.6815 14.6667 5.39257 14.2757 4.29624 13.5432C3.19991 12.8106 2.34543 11.7694 1.84085 10.5513C1.33626 9.33309 1.20424 7.99265 1.46148 6.69944C1.71871 5.40624 2.35365 4.21835 3.286 3.286C4.21835 2.35365 5.40624 1.71871 6.69944 1.46148C7.99265 1.20424 9.33309 1.33626 10.5513 1.84085C11.7694 2.34543 12.8106 3.19991 13.5432 4.29624C14.2757 5.39257 14.6667 6.6815 14.6667 8.00004C14.6667 9.76815 13.9643 11.4638 12.7141 12.7141C11.4638 13.9643 9.76815 14.6667 8.00004 14.6667ZM8.00004 2.66671C6.94521 2.66671 5.91406 2.97951 5.037 3.56554C4.15994 4.15157 3.47635 4.98453 3.07269 5.95907C2.66902 6.9336 2.5634 8.00596 2.76919 9.04053C2.97498 10.0751 3.48293 11.0254 4.22881 11.7713C4.97469 12.5172 5.925 13.0251 6.95956 13.2309C7.99413 13.4367 9.06648 13.3311 10.041 12.9274C11.0156 12.5237 11.8485 11.8401 12.4345 10.9631C13.0206 10.086 13.3334 9.05488 13.3334 8.00004C13.3334 6.58556 12.7715 5.229 11.7713 4.22881C10.7711 3.22861 9.41453 2.66671 8.00004 2.66671ZM8.00671 6.0267C8.3749 6.0267 8.67338 5.72823 8.67338 5.36004C8.67338 4.99185 8.3749 4.69337 8.00671 4.69337C7.63852 4.69337 7.34004 4.99185 7.34004 5.36004C7.34004 5.72823 7.63852 6.0267 8.00671 6.0267ZM7.52864 11.1381C7.65366 11.2631 7.82323 11.3334 8.00004 11.3334C8.17685 11.3334 8.34642 11.2631 8.47145 11.1381C8.59647 11.0131 8.66671 10.8435 8.66671 10.6667V7.33337C8.66671 7.15656 8.59647 6.98699 8.47145 6.86197C8.34642 6.73695 8.17685 6.66671 8.00004 6.66671C7.82323 6.66671 7.65366 6.73695 7.52864 6.86197C7.40361 6.98699 7.33338 7.15656 7.33338 7.33337V10.6667C7.33338 10.8435 7.40361 11.0131 7.52864 11.1381Z" fill="#0078B3"/>
</svg>
