<?xml version="1.0" encoding="UTF-8"?>
<svg width="60px" height="60px" viewBox="0 0 60 60" version="1.1" xmlns="http://www.w3.org/2000/svg" xmlns:xlink="http://www.w3.org/1999/xlink">
    <title>Icon/megaphone-circle/blue</title>
    <g id="Action-Area" stroke="none" stroke-width="1" fill="none" fill-rule="evenodd">
        <g id="Promotional/Awareness/1280/9-col" transform="translate(-21.000000, -46.000000)">
            <g id="Icon/megaphone-circle/blue" transform="translate(21.000000, 46.000000)">
                <circle id="Oval" fill="#def0fb" cx="30" cy="30" r="30"></circle>
                <path d="M32.1971372,45.9331898 C32.7261333,45.9331898 33.0438001,46.318904 32.9011192,46.7892266 L32.9011192,46.7892266 L32.7947816,47.1463233 C32.6467165,47.6141574 32.1015679,47.9998716 31.57661,47.9998716 L31.57661,47.9998716 L28.4268624,47.9998716 C27.8992123,47.9998716 27.3540637,47.6141574 27.2059987,47.1463233 L27.2059987,47.1463233 L27.1010071,46.7892266 C26.9596722,46.318904 27.274647,45.9331898 27.802297,45.9331898 L27.802297,45.9331898 Z M34.6126167,42.3153146 C35.1389207,42.3153146 35.5736936,42.7159597 35.5736936,43.2024574 L35.5736936,43.2024574 L35.5736936,43.4936094 C35.5736936,43.9813513 35.1389207,44.3819964 34.6126167,44.3819964 L34.6126167,44.3819964 L25.3881635,44.3819964 C24.8591675,44.3819964 24.4270867,43.9813513 24.4270867,43.4936094 L24.4270867,43.4936094 L24.4270867,43.2024574 C24.4270867,42.7159597 24.8591675,42.3153146 25.3881635,42.3153146 L25.3881635,42.3153146 Z M30.0013324,12 C37.2778883,12 43.2006593,17.5206987 43.2006593,24.3221185 C43.2006593,27.6031079 42.2470204,29.4238505 39.1091876,33.2061879 C37.3371022,35.3353022 37.1299919,35.8754703 37.1299919,38.5985224 C37.1299919,39.7558932 36.1300894,40.6793056 34.909016,40.6793056 L34.909016,40.6793056 L25.0923026,40.6793056 C23.8703394,40.6793056 22.8699807,39.7563346 22.8699807,38.5985224 C22.8699807,35.8748578 22.6631887,35.3349692 20.8898405,33.2050517 C17.7588486,29.4335948 16.8006593,27.6016204 16.8006593,24.3221185 C16.8006593,17.5204839 22.7236596,12 30.0013324,12 Z M30.0013324,14.3225804 C24.0673884,14.3225804 19.250463,18.8121563 19.250463,24.3221185 C19.250463,26.9481739 19.9952719,28.3721834 22.8138309,31.7672991 C24.8670971,34.233416 25.2985888,35.28711 25.3190043,38.3567252 L25.3190043,38.3567252 L34.6809692,38.3567252 C34.7014064,35.287484 35.1332613,34.2337814 37.184816,31.7688943 C40.0101614,28.3632265 40.7508556,26.9490501 40.7508556,24.3221185 C40.7508556,18.8123299 35.9341178,14.3225804 30.0013324,14.3225804 Z" id="lightbulb-small" fill="#006BA6"></path>
            </g>
        </g>
    </g>
</svg>