<?xml version="1.0" encoding="UTF-8" standalone="no"?>
<svg width="46px" height="41px" viewBox="0 0 46 41" version="1.1" xmlns="http://www.w3.org/2000/svg" xmlns:xlink="http://www.w3.org/1999/xlink">
    <!-- Generator: Sketch 41.2 (35397) - http://www.bohemiancoding.com/sketch -->
    <title>Shopping Cart</title>
    <desc>Created with Sketch.</desc>
    <defs></defs>
    <g id="•••-Icons-(0303)-" stroke="none" stroke-width="1" fill="none" fill-rule="evenodd">
        <g id="11_Pharmacy" transform="translate(-291.000000, -848.000000)" fill="#FFFFFF">
            <g id="Shopping-Cart" transform="translate(263.000000, 848.000000)">
                <g transform="translate(28.000000, 0.000000)" id="Fill-1">
                    <path d="M42.2091365,37.3910969 C42.2091365,39.3027647 40.5879126,40.8524126 38.5880168,40.8524126 C36.5880289,40.8524126 34.9668051,39.3027647 34.9668051,37.3910969 C34.9668051,35.479429 36.5880289,33.9297812 38.5880168,33.9297812 C40.5879126,33.9297812 42.2091365,35.479429 42.2091365,37.3910969 L42.2091365,37.3910969 Z M21.3875142,37.3910969 C21.3875142,39.3027647 19.7661983,40.8524126 17.7663025,40.8524126 C15.7664067,40.8524126 14.1451828,39.3027647 14.1451828,37.3910969 C14.1451828,35.479429 15.7664067,33.9297812 17.7663025,33.9297812 C19.7661983,33.9297812 21.3875142,35.479429 21.3875142,37.3910969 L21.3875142,37.3910969 Z M42.0557725,8.3570953 L39.9229366,20.6856463 L14.9478827,22.1444901 L11.968095,8.2888313 L42.0557725,8.3570953 Z M13.7420388,25.6824418 C13.7787468,25.6824418 13.8158228,25.6842818 13.8525308,25.6821658 L41.5840885,24.06821 C42.4266244,24.019174 43.1219604,23.431754 43.2598684,22.6353101 L45.9757081,6.96182342 C46.0623721,6.46106746 45.9147121,5.9974795 45.5717362,5.61006753 C45.2286682,5.22256356 44.7247842,5.09560357 44.1938523,5.09431557 L11.3055111,5.20765956 L10.4868951,1.39177588 C10.3140271,0.587235951 9.5727832,0 8.71341127,0 L1.81055985,0 C0.810703932,0 0,0.71667994 0,1.67237586 C0,2.62816378 0.810703932,3.34484372 1.81055985,3.34484372 L7.23699539,3.34484372 L11.386011,22.7041261 C9.4995512,23.59717 8.06977932,25.7140898 8.06977932,27.6543697 C8.06977932,30.2263215 10.1535791,33.3503652 13.1434869,33.3503652 L41.6433365,33.3503652 C42.6431924,33.3503652 43.4538964,32.7320333 43.4538964,31.7762453 C43.4538964,30.8205494 42.6431924,30.2022175 41.6433365,30.2022175 L13.1434869,30.2022175 C12.451279,30.2022175 11.690991,28.7887296 11.690991,27.8464657 C11.690991,27.0627177 12.8411749,25.6824418 13.7420388,25.6824418 L13.7420388,25.6824418 Z"></path>
                </g>
            </g>
        </g>
    </g>
</svg>