<svg width="24" height="24" viewBox="0 0 24 24" fill="none" xmlns="http://www.w3.org/2000/svg">
<path fill-rule="evenodd" clip-rule="evenodd" d="M21 12C21.0001 14.3732 20.0629 16.6503 18.3923 18.3358C16.7217 20.0214 14.4531 20.9789 12.08 21C11.8148 21 11.5604 20.8946 11.3729 20.7071C11.1854 20.5196 11.08 20.2652 11.08 20C11.08 19.7348 11.1854 19.4804 11.3729 19.2929C11.5604 19.1054 11.8148 19 12.08 19C13.461 18.9842 14.8064 18.5603 15.947 17.7816C17.0875 17.0029 17.9723 15.9042 18.4898 14.6238C19.0074 13.3434 19.1347 11.9385 18.8556 10.586C18.5765 9.23343 17.9036 7.99365 16.9215 7.02267C15.9395 6.05169 14.6921 5.3929 13.3365 5.12922C11.9808 4.86555 10.5775 5.00877 9.30307 5.54085C8.02864 6.07293 6.94008 6.97011 6.17438 8.11945C5.40869 9.2688 5.00009 10.619 5 12C5.05923 13.7726 5.77153 15.4608 7 16.74V15C7 14.7348 7.10536 14.4804 7.29289 14.2929C7.48043 14.1054 7.73478 14 8 14C8.26522 14 8.51957 14.1054 8.70711 14.2929C8.89464 14.4804 9 14.7348 9 15V19C9.00325 19.0137 9.00424 19.0278 9.00298 19.0417C9.00456 19.0778 9.00357 19.114 9 19.15C8.96384 19.3885 8.84272 19.6058 8.65895 19.762C8.47519 19.9182 8.24116 20.0027 8 20H4C3.73478 20 3.48043 19.8946 3.29289 19.7071C3.10536 19.5196 3 19.2652 3 19C3 18.7348 3.10536 18.4804 3.29289 18.2929C3.48043 18.1054 3.73478 18 4 18H5.49C3.95089 16.3739 3.06449 14.238 3 12C3 10.8181 3.23279 9.64778 3.68508 8.55585C4.13738 7.46392 4.80031 6.47177 5.63604 5.63604C6.47177 4.80031 7.46392 4.13738 8.55585 3.68508C9.64778 3.23279 10.8181 3 12 3C13.1819 3 14.3522 3.23279 15.4442 3.68508C16.5361 4.13738 17.5282 4.80031 18.364 5.63604C19.1997 6.47177 19.8626 7.46392 20.3149 8.55585C20.7672 9.64778 21 10.8181 21 12ZM14 15C13.7362 14.9962 13.4846 14.8884 13.3 14.7L11.3 12.7C11.1116 12.5154 11.0038 12.2638 11 12V8C11 7.73478 11.1054 7.48043 11.2929 7.29289C11.4804 7.10536 11.7348 7 12 7C12.2652 7 12.5196 7.10536 12.7071 7.29289C12.8946 7.48043 13 7.73478 13 8V11.58L14.71 13.29C14.8963 13.4774 15.0008 13.7308 15.0008 13.995C15.0008 14.2592 14.8963 14.5126 14.71 14.7C14.6174 14.7945 14.5069 14.8697 14.3851 14.9212C14.2632 14.9727 14.1323 14.9995 14 15Z" fill="#003B71"/>
</svg>
